<?xml version="1.0" encoding="UTF-8"?>
<svg width="200" height="200" viewBox="0 0 200 200" xmlns="http://www.w3.org/2000/svg">
  <defs>
    <linearGradient id="logoGradient" x1="0%" y1="0%" x2="100%" y2="100%">
      <stop offset="0%" style="stop-color:#00FFCC;stop-opacity:1" />
      <stop offset="100%" style="stop-color:#9674d4;stop-opacity:1" />
    </linearGradient>
  </defs>
  
  <!-- Metatron's Cube base -->
  <g stroke="url(#logoGradient)" fill="none" stroke-width="2">
    <!-- Center circle -->
    <circle cx="100" cy="100" r="20" />
    
    <!-- Outer circles -->
    <circle cx="100" cy="60" r="20" />
    <circle cx="135.3" cy="80" r="20" />
    <circle cx="135.3" cy="120" r="20" />
    <circle cx="100" cy="140" r="20" />
    <circle cx="64.7" cy="120" r="20" />
    <circle cx="64.7" cy="80" r="20" />
    
    <!-- Connecting lines -->
    <path d="M100 80 L135.3 100 L100 120 L64.7 100 Z" />
    <path d="M100 80 L135.3 100 M135.3 100 L100 120 M100 120 L64.7 100 M64.7 100 L100 80" />
    <path d="M100 60 L135.3 80 M135.3 80 L135.3 120 M135.3 120 L100 140 M100 140 L64.7 120 M64.7 120 L64.7 80 M64.7 80 L100 60" />
  </g>
  
  <!-- Glowing effect -->
  <g stroke="url(#logoGradient)" filter="url(#glow)">
    <circle cx="100" cy="100" r="95" stroke-width="2" fill="none" opacity="0.2" />
  </g>
  
  <defs>
    <filter id="glow" x="-50%" y="-50%" width="200%" height="200%">
      <feGaussianBlur stdDeviation="4" result="coloredBlur"/>
      <feMerge>
        <feMergeNode in="coloredBlur"/>
        <feMergeNode in="SourceGraphic"/>
      </feMerge>
    </filter>
  </defs>
</svg>
